<?xml version="1.0" encoding="UTF-8"?>
<svg width="680" height="580" viewBox="0 0 680 580" xmlns="http://www.w3.org/2000/svg" style="background:#ffffff;font-family:Arial,sans-serif;">
<defs>
  <marker id="arrow" viewBox="0 0 10 10" refX="8" refY="5" markerWidth="6" markerHeight="6" orient="auto-start-reverse">
    <path d="M2 1L8 5L2 9" fill="none" stroke="context-stroke" stroke-width="1.5" stroke-linecap="round" stroke-linejoin="round"/>
  </marker>
</defs>
<!-- BATTERIE -->
<rect x="30" y="230" width="110" height="60" rx="8" fill="#E1F5EE" stroke="#0F6E56" stroke-width="0.5"/>
<text x="85" y="254" text-anchor="middle" dominant-baseline="central" font-size="14" font-weight="500" fill="#085041">Batterie</text>
<text x="85" y="272" text-anchor="middle" dominant-baseline="central" font-size="12" fill="#0F6E56">LiPo 3.7V</text>
<!-- TP4056 -->
<rect x="210" y="210" width="130" height="100" rx="8" fill="#FAEEDA" stroke="#854F0B" stroke-width="0.5"/>
<text x="275" y="243" text-anchor="middle" dominant-baseline="central" font-size="14" font-weight="500" fill="#412402">TP4056</text>
<text x="275" y="261" text-anchor="middle" dominant-baseline="central" font-size="12" fill="#854F0B">Chargeur LiPo</text>
<text x="214" y="285" dominant-baseline="central" font-size="11" fill="#633806">BAT+</text>
<text x="214" y="300" dominant-baseline="central" font-size="11" fill="#633806">BAT-</text>
<text x="303" y="285" dominant-baseline="central" font-size="11" fill="#633806">OUT+</text>
<text x="303" y="300" dominant-baseline="central" font-size="11" fill="#633806">OUT-</text>
<!-- ESP32 -->
<rect x="440" y="150" width="150" height="220" rx="8" fill="#E6F1FB" stroke="#185FA5" stroke-width="0.5"/>
<text x="515" y="180" text-anchor="middle" dominant-baseline="central" font-size="14" font-weight="500" fill="#042C53">ESP32</text>
<text x="515" y="198" text-anchor="middle" dominant-baseline="central" font-size="12" fill="#185FA5">DevKitC V4</text>
<text x="444" y="226" dominant-baseline="central" font-size="11" fill="#0C447C">VIN</text>
<text x="444" y="244" dominant-baseline="central" font-size="11" fill="#0C447C">GND</text>
<text x="444" y="280" dominant-baseline="central" font-size="11" fill="#0C447C">GPIO4</text>
<text x="444" y="300" dominant-baseline="central" font-size="11" fill="#0C447C">GPIO12</text>
<text x="444" y="320" dominant-baseline="central" font-size="11" fill="#0C447C">GPIO35</text>
<text x="444" y="348" dominant-baseline="central" font-size="11" fill="#0C447C">GND</text>
<!-- REED SWITCH -->
<rect x="440" y="40" width="140" height="54" rx="8" fill="#EEEDFE" stroke="#534AB7" stroke-width="0.5"/>
<text x="510" y="61" text-anchor="middle" dominant-baseline="central" font-size="14" font-weight="500" fill="#26215C">Reed Switch</text>
<text x="510" y="79" text-anchor="middle" dominant-baseline="central" font-size="12" fill="#534AB7">MC-38 + aimant</text>
<!-- BOUTON EXTERNE -->
<rect x="440" y="108" width="140" height="34" rx="8" fill="#FAECE7" stroke="#993C1D" stroke-width="0.5"/>
<text x="510" y="125" text-anchor="middle" dominant-baseline="central" font-size="14" font-weight="500" fill="#4A1B0C">Bouton externe</text>
<!-- PONT DIVISEUR -->
<rect x="210" y="390" width="130" height="80" rx="8" fill="#F1EFE8" stroke="#5F5E5A" stroke-width="0.5"/>
<text x="275" y="415" text-anchor="middle" dominant-baseline="central" font-size="14" font-weight="500" fill="#2C2C2A">Pont diviseur</text>
<text x="275" y="433" text-anchor="middle" dominant-baseline="central" font-size="11" fill="#5F5E5A">R1 100k + R2 220k</text>
<text x="275" y="450" text-anchor="middle" dominant-baseline="central" font-size="11" fill="#5F5E5A">-> GPIO35</text>
<!-- GND commun -->
<rect x="210" y="520" width="130" height="34" rx="8" fill="#F1EFE8" stroke="#5F5E5A" stroke-width="0.5"/>
<text x="275" y="541" text-anchor="middle" dominant-baseline="central" font-size="14" font-weight="500" fill="#2C2C2A">GND commun</text>
<!-- FILS -->
<path d="M140 248 L210 248" fill="none" stroke="#1D9E75" stroke-width="2" marker-end="url(#arrow)"/>
<text x="175" y="241" text-anchor="middle" font-size="11" fill="#1D9E75">+</text>
<path d="M140 268 L210 268" fill="none" stroke="#444441" stroke-width="2" marker-end="url(#arrow)"/>
<text x="175" y="283" text-anchor="middle" font-size="11" fill="#444441">-</text>
<path d="M340 253 L390 253 L390 226 L440 226" fill="none" stroke="#D85A30" stroke-width="2" marker-end="url(#arrow)"/>
<path d="M340 268 L400 268 L400 244 L440 244" fill="none" stroke="#444441" stroke-width="2" marker-end="url(#arrow)"/>
<path d="M275 310 L275 390" fill="none" stroke="#BA7517" stroke-width="1.5" stroke-dasharray="5,3" marker-end="url(#arrow)"/>
<text x="290" y="355" text-anchor="start" font-size="11" fill="#BA7517">BAT+</text>
<path d="M340 420 L410 420 L410 320 L440 320" fill="none" stroke="#BA7517" stroke-width="1.5" marker-end="url(#arrow)"/>
<path d="M275 470 L275 520" fill="none" stroke="#444441" stroke-width="1.5" marker-end="url(#arrow)"/>
<path d="M340 537 L420 537 L420 348 L440 348" fill="none" stroke="#444441" stroke-width="1.5" marker-end="url(#arrow)"/>
<path d="M510 94 L510 115 L430 115 L430 280 L440 280" fill="none" stroke="#534AB7" stroke-width="1.5" marker-end="url(#arrow)"/>
<text x="435" y="110" text-anchor="middle" font-size="11" fill="#534AB7">fil 1</text>
<path d="M440 94 L418 94 L418 537 L340 537" fill="none" stroke="#444441" stroke-width="1" stroke-dasharray="4,3"/>
<text x="415" y="88" text-anchor="end" font-size="11" fill="#444441">fil 2</text>
<path d="M580 142 L580 148 L432 148 L432 300 L440 300" fill="none" stroke="#D85A30" stroke-width="1.5" marker-end="url(#arrow)"/>
<path d="M440 142 L418 142" fill="none" stroke="#444441" stroke-width="1" stroke-dasharray="4,3"/>
<!-- LEGENDE -->
<rect x="30" y="400" width="160" height="118" rx="6" fill="none" stroke="#888780" stroke-width="0.5"/>
<text x="40" y="418" dominant-baseline="central" font-size="13" font-weight="500" fill="#2C2C2A">Legende</text>
<line x1="40" y1="434" x2="70" y2="434" stroke="#1D9E75" stroke-width="2"/>
<text x="78" y="438" dominant-baseline="central" font-size="12" fill="#444441">Alimentation +</text>
<line x1="40" y1="454" x2="70" y2="454" stroke="#D85A30" stroke-width="2"/>
<text x="78" y="458" dominant-baseline="central" font-size="12" fill="#444441">Signal / OUT+</text>
<line x1="40" y1="472" x2="70" y2="472" stroke="#444441" stroke-width="2"/>
<text x="78" y="476" dominant-baseline="central" font-size="12" fill="#444441">GND</text>
<line x1="40" y1="490" x2="70" y2="490" stroke="#BA7517" stroke-width="1.5"/>
<text x="78" y="494" dominant-baseline="central" font-size="12" fill="#444441">Mesure batterie</text>
<line x1="40" y1="506" x2="70" y2="506" stroke="#534AB7" stroke-width="1.5" stroke-dasharray="4,3"/>
<text x="78" y="510" dominant-baseline="central" font-size="12" fill="#444441">Capteur Reed</text>
</svg>
